<?xml version="1.0" encoding="utf-8"?>
<!-- Generator: Adobe Illustrator 19.1.0, SVG Export Plug-In . SVG Version: 6.00 Build 0)  -->
<!DOCTYPE svg PUBLIC "-//W3C//DTD SVG 1.1//EN" "http://www.w3.org/Graphics/SVG/1.1/DTD/svg11.dtd">
<svg version="1.1" id="Layer_1" xmlns="http://www.w3.org/2000/svg" xmlns:xlink="http://www.w3.org/1999/xlink" x="0px" y="0px"
	 viewBox="0 0 48 48" style="enable-background:new 0 0 48 48;" xml:space="preserve">
 <style type="text/css">
	.st0{fill:#FFFFFF;}
	.st1{opacity:0.8;fill:url(#SVGID_1_);enable-background:new    ;}
	.st2{fill:url(#SVGID_2_);stroke:#565656;}
	.st3{fill:#AEAE57;stroke:url(#SVGID_3_);stroke-width:2;}
	.st4{fill:url(#SVGID_4_);stroke:url(#SVGID_5_);stroke-width:8.828904e-02;}
	.st5{fill:url(#SVGID_6_);stroke:url(#SVGID_7_);stroke-width:0.1304;}
	.st6{fill:url(#SVGID_8_);stroke:url(#SVGID_9_);stroke-width:0.1304;}
	.st7{fill:url(#SVGID_10_);stroke:url(#SVGID_11_);stroke-width:8.828908e-02;}
	.st8{fill-opacity:0.2339;}
	.st9{fill:url(#SVGID_12_);stroke:url(#SVGID_13_);stroke-width:8.828903e-02;}
	.st10{fill:none;stroke:url(#SVGID_14_);stroke-width:0.9203;}
	.st11{fill:url(#SVGID_15_);}
	.st12{fill:url(#SVGID_16_);}
	.st13{fill:#FFD800;stroke:url(#SVGID_17_);stroke-width:0.2;}
	.st14{opacity:0.5978;fill:url(#SVGID_18_);enable-background:new    ;}
	.st15{fill:url(#SVGID_19_);}
	.st16{fill:url(#SVGID_20_);}
	.st17{fill:none;stroke:url(#SVGID_21_);stroke-width:0.9875;}
	.st18{opacity:0.8;fill:url(#SVGID_22_);enable-background:new    ;}
	.st19{fill:url(#SVGID_23_);stroke:#565656;}
	.st20{fill:#AEAE57;stroke:url(#SVGID_24_);stroke-width:2;}
	.st21{fill:url(#SVGID_25_);stroke:url(#SVGID_26_);stroke-width:8.828904e-02;}
	.st22{fill:url(#SVGID_27_);stroke:url(#SVGID_28_);stroke-width:0.1304;}
	.st23{fill:url(#SVGID_29_);stroke:url(#SVGID_30_);stroke-width:0.1304;}
	.st24{fill:url(#SVGID_31_);stroke:url(#SVGID_32_);stroke-width:8.828908e-02;}
	.st25{fill:url(#SVGID_33_);stroke:url(#SVGID_34_);stroke-width:8.828903e-02;}
	.st26{fill:none;stroke:url(#SVGID_35_);stroke-width:0.9203;}
	.st27{fill:url(#SVGID_36_);}
	.st28{fill:url(#SVGID_37_);}
	.st29{fill:#FFD800;stroke:url(#SVGID_38_);stroke-width:0.2;}
	.st30{opacity:0.5978;fill:url(#SVGID_39_);enable-background:new    ;}
	.st31{fill:url(#SVGID_40_);}
	.st32{fill:url(#SVGID_41_);}
	.st33{fill:none;stroke:url(#SVGID_42_);stroke-width:0.9875;}
</style>
<symbol id="lightbulb">
	<g>
		<g id="base">
			<path class="st0" d="M24,3.3c-7.5,0-13.5,5.9-13.5,13.2c0,7.5,5.5,8.3,5.5,11c0,3.3,3.2,6.9,8.4,6.8c5.7-0.1,8-3.3,8-6.8
				c0-2.9,5.1-3,5.1-11C37.5,9.2,31.5,3.3,24,3.3z"/>

				<radialGradient id="SVGID_1_" cx="-1316.8484" cy="-182.7607" r="7.8274" gradientTransform="matrix(2.1122 0 0 -0.6227 2806.532 -70.1046)" gradientUnits="userSpaceOnUse">
				<stop  offset="0" style="stop-color:#000000;stop-opacity:0.5155"/>
				<stop  offset="0.5517" style="stop-color:#000000;stop-opacity:0.1443"/>
				<stop  offset="1" style="stop-color:#000000;stop-opacity:0"/>
			</radialGradient>
			<path class="st1" d="M41.6,43.8c0,2.7-7.4,4.8-16.5,4.8S8.6,46.4,8.6,43.8S16,39,25.1,39C34.1,39,41.6,41.2,41.6,43.8L41.6,43.8z"
				/>

				<linearGradient id="SVGID_2_" gradientUnits="userSpaceOnUse" x1="-1071.6581" y1="109.6311" x2="-1068.3036" y2="109.6311" gradientTransform="matrix(1.7634 0 0 -1.5367 1910.9119 211.7453)">
				<stop  offset="5.618000e-03" style="stop-color:#686868"/>
				<stop  offset="3.012137e-02" style="stop-color:#777777"/>
				<stop  offset="8.366583e-02" style="stop-color:#929292"/>
				<stop  offset="0.1422" style="stop-color:#A7A7A7"/>
				<stop  offset="0.2074" style="stop-color:#B6B6B6"/>
				<stop  offset="0.2846" style="stop-color:#BEBEBE"/>
				<stop  offset="0.4045" style="stop-color:#C1C1C1"/>
				<stop  offset="0.4962" style="stop-color:#BCBCBC"/>
				<stop  offset="0.6057" style="stop-color:#ADADAD"/>
				<stop  offset="0.7245" style="stop-color:#959595"/>
				<stop  offset="0.8497" style="stop-color:#747474"/>
				<stop  offset="0.9789" style="stop-color:#494949"/>
				<stop  offset="1" style="stop-color:#414141"/>
			</linearGradient>
			<path class="st2" d="M21,41.3v1.4c0,1.4,1.4,2.6,3,2.6s3-1.2,3-2.6v-1.4H21z"/>

				<linearGradient id="SVGID_3_" gradientUnits="userSpaceOnUse" x1="45.7871" y1="23.647" x2="45.7871" y2="28.0536" gradientTransform="matrix(0.9917 0 0 -0.9909 -21.3994 56.0112)">
				<stop  offset="0" style="stop-color:#4C4428"/>
				<stop  offset="1" style="stop-color:#E7B600;stop-opacity:0"/>
			</linearGradient>
			<path class="st3" d="M23.8,29.3c-3.2,0-6.9,1-4.9,2.8c-0.5,0.2-1.2,0.6-1.2,1.7c0.1,0.5,0.7,0.9,1.5,1.1c-0.9,0.7-1.5,1.3-1.5,1.9
				c0.1,0.6,0.7,1,1.4,1.2c-0.8,0.6-1.4,1.3-1.4,1.9c0.1,1,2.1,2,6.5,1.9c3.1-0.1,5.8-0.7,6-1.9c0.1-0.4-0.3-0.9-0.9-1.3
				c0.5-0.4,0.8-0.9,0.8-1.3c-0.1-0.6-0.6-0.9-1.4-1.2c0.9-0.6,1.4-1.3,1.4-1.9c-0.1-0.6-0.6-0.9-1.4-1.1c0.9-0.7,1.4-1.4,1.4-2
				C30,30.5,26.9,29.3,23.8,29.3z"/>

				<linearGradient id="SVGID_4_" gradientUnits="userSpaceOnUse" x1="2005.4901" y1="90.9497" x2="2023.9734" y2="90.9497" gradientTransform="matrix(0.5604 2.969716e-02 0.1173 -0.6523 -1115.1532 38.9833)">
				<stop  offset="5.618000e-03" style="stop-color:#A3A349"/>
				<stop  offset="2.078677e-02" style="stop-color:#ACAC54"/>
				<stop  offset="6.600000e-02" style="stop-color:#C1C172"/>
				<stop  offset="0.1148" style="stop-color:#D4D68E"/>
				<stop  offset="0.1677" style="stop-color:#E2E4A6"/>
				<stop  offset="0.2265" style="stop-color:#EDF0B8"/>
				<stop  offset="0.2963" style="stop-color:#F3F6C3"/>
				<stop  offset="0.4045" style="stop-color:#F5F8C7"/>
				<stop  offset="0.5239" style="stop-color:#EEF0BE"/>
				<stop  offset="0.6666" style="stop-color:#DBDDA9"/>
				<stop  offset="0.8211" style="stop-color:#BEBD88"/>
				<stop  offset="0.9832" style="stop-color:#989564"/>
				<stop  offset="1" style="stop-color:#949160"/>
			</linearGradient>

				<linearGradient id="SVGID_5_" gradientUnits="userSpaceOnUse" x1="2017.7926" y1="90.9914" x2="2004.4221" y2="90.8825" gradientTransform="matrix(0.5604 2.969716e-02 0.1173 -0.6523 -1115.1532 38.9833)">
				<stop  offset="0" style="stop-color:#929470"/>
				<stop  offset="0.2647" style="stop-color:#FCFFC1"/>
				<stop  offset="0.6324" style="stop-color:#F3F5BA"/>
				<stop  offset="1" style="stop-color:#929470"/>
			</linearGradient>
			<path class="st4" d="M30.1,39.9c-0.2,1.2-3.3,1.9-8.2,1.6c-3.2-0.1-3.3-1-3.1-2.2c0.2-1.2,2.9-2.1,6-1.9
				C28,37.6,30.4,38.7,30.1,39.9z"/>

				<linearGradient id="SVGID_6_" gradientUnits="userSpaceOnUse" x1="1471.1226" y1="-785.3453" x2="1489.6057" y2="-785.3453" gradientTransform="matrix(0.6119 -0.1312 -6.194293e-02 -0.7364 -930.618 -345.6323)">
				<stop  offset="5.618000e-03" style="stop-color:#A3A349"/>
				<stop  offset="2.078677e-02" style="stop-color:#ACAC54"/>
				<stop  offset="6.600000e-02" style="stop-color:#C1C172"/>
				<stop  offset="0.1148" style="stop-color:#D4D68E"/>
				<stop  offset="0.1677" style="stop-color:#E2E4A6"/>
				<stop  offset="0.2265" style="stop-color:#EDF0B8"/>
				<stop  offset="0.2963" style="stop-color:#F3F6C3"/>
				<stop  offset="0.4045" style="stop-color:#F5F8C7"/>
				<stop  offset="0.5239" style="stop-color:#EEF0BE"/>
				<stop  offset="0.6666" style="stop-color:#DBDDA9"/>
				<stop  offset="0.8211" style="stop-color:#BEBD88"/>
				<stop  offset="0.9832" style="stop-color:#989564"/>
				<stop  offset="1" style="stop-color:#949160"/>
			</linearGradient>

				<linearGradient id="SVGID_7_" gradientUnits="userSpaceOnUse" x1="1483.4253" y1="-785.3203" x2="1470.0547" y2="-785.4291" gradientTransform="matrix(0.6119 -0.1312 -6.194293e-02 -0.7364 -930.618 -345.6323)">
				<stop  offset="0" style="stop-color:#929470"/>
				<stop  offset="0.2647" style="stop-color:#FCFFC1"/>
				<stop  offset="0.6324" style="stop-color:#F3F5BA"/>
				<stop  offset="1" style="stop-color:#929470"/>
			</linearGradient>
			<path class="st5" d="M30,37.2c0.1,1.4-2.6,3.1-6,3.8c-3.4,0.7-6.3,0.2-6.4-1.2l0,0c-0.1-1.4,2.6-3.1,6-3.8S29.9,35.8,30,37.2z"/>

				<linearGradient id="SVGID_8_" gradientUnits="userSpaceOnUse" x1="1471.1226" y1="-785.3128" x2="1489.6057" y2="-785.3128" gradientTransform="matrix(0.6119 -0.1312 -6.194293e-02 -0.7364 -930.618 -348.7079)">
				<stop  offset="5.618000e-03" style="stop-color:#A3A349"/>
				<stop  offset="2.078677e-02" style="stop-color:#ACAC54"/>
				<stop  offset="6.600000e-02" style="stop-color:#C1C172"/>
				<stop  offset="0.1148" style="stop-color:#D4D68E"/>
				<stop  offset="0.1677" style="stop-color:#E2E4A6"/>
				<stop  offset="0.2265" style="stop-color:#EDF0B8"/>
				<stop  offset="0.2963" style="stop-color:#F3F6C3"/>
				<stop  offset="0.4045" style="stop-color:#F5F8C7"/>
				<stop  offset="0.5239" style="stop-color:#EEF0BE"/>
				<stop  offset="0.6666" style="stop-color:#DBDDA9"/>
				<stop  offset="0.8211" style="stop-color:#BEBD88"/>
				<stop  offset="0.9832" style="stop-color:#989564"/>
				<stop  offset="1" style="stop-color:#949160"/>
			</linearGradient>

				<linearGradient id="SVGID_9_" gradientUnits="userSpaceOnUse" x1="1483.425" y1="-785.2878" x2="1470.0543" y2="-785.3966" gradientTransform="matrix(0.6119 -0.1312 -6.194293e-02 -0.7364 -930.618 -348.7079)">
				<stop  offset="0" style="stop-color:#929470"/>
				<stop  offset="0.2647" style="stop-color:#FCFFC1"/>
				<stop  offset="0.6324" style="stop-color:#F3F5BA"/>
				<stop  offset="1" style="stop-color:#929470"/>
			</linearGradient>
			<path class="st6" d="M30,34.1c0.1,1.4-2.6,3.1-6,3.8c-3.4,0.7-6.3,0.2-6.4-1.2l0,0c-0.1-1.4,2.6-3.1,6-3.8S29.9,32.8,30,34.1z"/>

				<linearGradient id="SVGID_10_" gradientUnits="userSpaceOnUse" x1="1471.1228" y1="-785.7468" x2="1489.6062" y2="-785.7468" gradientTransform="matrix(0.6119 -0.1312 -6.194293e-02 -0.7364 -930.6182 -351.7834)">
				<stop  offset="5.618000e-03" style="stop-color:#A3A349"/>
				<stop  offset="2.078677e-02" style="stop-color:#ACAC54"/>
				<stop  offset="6.600000e-02" style="stop-color:#C1C172"/>
				<stop  offset="0.1148" style="stop-color:#D4D68E"/>
				<stop  offset="0.1677" style="stop-color:#E2E4A6"/>
				<stop  offset="0.2265" style="stop-color:#EDF0B8"/>
				<stop  offset="0.2963" style="stop-color:#F3F6C3"/>
				<stop  offset="0.4045" style="stop-color:#F5F8C7"/>
				<stop  offset="0.5239" style="stop-color:#EEF0BE"/>
				<stop  offset="0.6666" style="stop-color:#DBDDA9"/>
				<stop  offset="0.8211" style="stop-color:#BEBD88"/>
				<stop  offset="0.9832" style="stop-color:#989564"/>
				<stop  offset="1" style="stop-color:#949160"/>
			</linearGradient>

				<linearGradient id="SVGID_11_" gradientUnits="userSpaceOnUse" x1="1483.4288" y1="-785.7091" x2="1470.0582" y2="-785.818" gradientTransform="matrix(0.6119 -0.1312 -6.194293e-02 -0.7364 -930.6182 -351.7834)">
				<stop  offset="0" style="stop-color:#929470"/>
				<stop  offset="0.2647" style="stop-color:#FCFFC1"/>
				<stop  offset="0.6324" style="stop-color:#F3F5BA"/>
				<stop  offset="1" style="stop-color:#929470"/>
			</linearGradient>
			<path class="st7" d="M30,31.3c0,1.3-2.6,2.9-6,3.6s-6.2,0.2-6.3-1.2c-0.2-1.3,2.2-2.9,5.6-3.1C26.6,30.4,30,30.5,30,31.3z"/>
			<path class="st0" d="M21.5,36.3c0.1,0.6-0.3,1.2-0.9,1.3s-1.2-0.3-1.3-0.9c0-0.1,0-0.3,0-0.4c-0.1-0.6,0.3-1.2,0.9-1.3
				s1.2,0.3,1.3,0.9C21.5,36.1,21.5,36.2,21.5,36.3z"/>
			<path class="st8" d="M18.8,35c3.4,0.5,6.9-0.1,9.8-1.9c0.8-0.5,0.9-1.1,1.3-1.6C28.4,32.6,24.8,35.6,18.8,35z"/>
			<path class="st0" d="M21.5,39.3c0.1,0.6-0.3,1.2-0.9,1.3s-1.2-0.3-1.3-0.9c0-0.1,0-0.3,0-0.4c-0.1-0.6,0.3-1.2,0.9-1.3
				s1.2,0.3,1.3,0.9C21.5,39.1,21.5,39.2,21.5,39.3z"/>
			<path class="st8" d="M18.8,41.1c3.4,0.5,6.9-0.1,9.8-1.9c0.8-0.5,0.9-1.1,1.3-1.6C28.5,38.7,24.9,41.7,18.8,41.1z"/>
			<path class="st8" d="M18.9,38c3.3,0.5,6.9-0.1,9.7-1.9c0.8-0.5,1-1.1,1.3-1.6C28.5,35.6,25,38.6,18.9,38z"/>

				<linearGradient id="SVGID_12_" gradientUnits="userSpaceOnUse" x1="-858.5052" y1="-227.1843" x2="-864.4792" y2="-226.6846" gradientTransform="matrix(1.5304 0 0 -0.5438 1342.4042 -91.3196)">
				<stop  offset="0" style="stop-color:#D6D87B"/>
				<stop  offset="1" style="stop-color:#FBE843"/>
			</linearGradient>

				<linearGradient id="SVGID_13_" gradientUnits="userSpaceOnUse" x1="-5515.4028" y1="513.1028" x2="-5524.0366" y2="512.9017" gradientTransform="matrix(-0.8645 -4.341720e-02 -0.1809 0.9537 -4654.4053 -696.798)">
				<stop  offset="0" style="stop-color:#DCD763"/>
				<stop  offset="0.2647" style="stop-color:#D9BB05"/>
				<stop  offset="0.6324" style="stop-color:#DCD763"/>
				<stop  offset="1" style="stop-color:#C7A107"/>
			</linearGradient>
			<path class="st9" d="M18.5,31.8c0-0.8,1.5-1.8,5.3-1.7c3.5,0,5.8,0.9,5.8,2.1c0,1.3-3.1,2.1-6.4,1.9C20,34,18.5,33,18.5,31.8z"/>

				<linearGradient id="SVGID_14_" gradientUnits="userSpaceOnUse" x1="471.524" y1="30.4031" x2="428.3319" y2="43.1992" gradientTransform="matrix(0.8534 0 0 -0.9752 -368.8648 51.4851)">
				<stop  offset="0" style="stop-color:#FFFFF1"/>
				<stop  offset="1" style="stop-color:#F1F3FF;stop-opacity:0"/>
			</linearGradient>
			<path class="st10" d="M24,4.3c-7,0-12.6,5.6-12.6,12.3c0,7,5.1,7.8,5.1,10.3c0,3.1,3,6.5,7.9,6.3c5.3-0.1,7.4-3.1,7.4-6.3
				c0-2.7,4.8-2.8,4.8-10.3C36.6,9.9,31,4.3,24,4.3z"/>

				<linearGradient id="SVGID_15_" gradientUnits="userSpaceOnUse" x1="-6783.1133" y1="135.245" x2="-6781.5674" y2="127.396" gradientTransform="matrix(-0.59 0 0 -1.473 -3973.9919 219.3211)">
				<stop  offset="0" style="stop-color:#FFE708"/>
				<stop  offset="0.4118" style="stop-color:#FFD604;stop-opacity:0.4392"/>
				<stop  offset="1" style="stop-color:#4C3E1C;stop-opacity:0.4784"/>
			</linearGradient>
			<path class="st11" d="M29.5,19.9c0.3,0.1,0.5,0.4,0.4,0.6l-3.6,10.8c-0.1,0.3-0.4,0.5-0.7,0.4s-0.5-0.4-0.4-0.7l3.6-10.7
				C28.9,20,29.1,19.8,29.5,19.9z"/>

				<linearGradient id="SVGID_16_" gradientUnits="userSpaceOnUse" x1="1789.9371" y1="135.2016" x2="1791.4829" y2="127.3524" gradientTransform="matrix(0.59 0 0 -1.473 -1036.0038 219.4371)">
				<stop  offset="0" style="stop-color:#FFE708"/>
				<stop  offset="0.4118" style="stop-color:#FFD604;stop-opacity:0.4392"/>
				<stop  offset="1" style="stop-color:#4C3E1C;stop-opacity:0.4784"/>
			</linearGradient>
			<path class="st12" d="M18.5,20c-0.3,0.1-0.5,0.4-0.4,0.7l3.6,10.7c0.1,0.3,0.4,0.5,0.7,0.4c0.3-0.1,0.5-0.4,0.4-0.7l-3.6-10.7
				C19.1,20.1,18.8,19.9,18.5,20z"/>

				<linearGradient id="SVGID_17_" gradientUnits="userSpaceOnUse" x1="-1155.3187" y1="-286.963" x2="-1160.5914" y2="-287.71" gradientTransform="matrix(1.861 0 0 -0.467 2178.7329 -112.9794)">
				<stop  offset="0" style="stop-color:#FFB812"/>
				<stop  offset="1" style="stop-color:#FFB812;stop-opacity:0"/>
			</linearGradient>
			<path class="st13" d="M18.6,19.9c-0.3,0.1-0.4,0.2-0.5,0.5c0,0.2,0.1,0.4,0.3,0.5c0,0,1.7,1,4,1.5c2.2,0.5,5.1,0.6,7.3-1.5
				c0.2-0.2,0.2-0.4,0.2-0.6s-0.2-0.3-0.4-0.4c-0.2,0-0.4,0-0.6,0.2c-1.8,1.8-4.2,1.8-6.3,1.3S19,20,19,20
				C18.8,19.9,18.8,19.9,18.6,19.9z"/>

				<linearGradient id="SVGID_18_" gradientUnits="userSpaceOnUse" x1="-188.7871" y1="22.1996" x2="-173.6891" y2="-4.4655" gradientTransform="matrix(1.0885 0 0 -0.9166 224.5388 28.8329)">
				<stop  offset="0" style="stop-color:#FFFFFF"/>
				<stop  offset="1" style="stop-color:#FFFFFF;stop-opacity:0"/>
			</linearGradient>
			<path class="st14" d="M24.3,6c-6,0-10.8,4-10.8,8.9c0,1.9,0.9,3.6,2.2,5.1c1.5,0.6,3.1,1.1,4.9,1.1c6,0,10.8-4,10.8-8.9
				c0-2-0.9-3.7-2.2-5.2C27.6,6.4,26.1,6,24.3,6z"/>
		</g>
		<g id="glow">

				<radialGradient id="SVGID_19_" cx="-616.3834" cy="61.1793" r="15.0742" gradientTransform="matrix(1.3418 0 0 -1.0894 851.1634 83.8738)" gradientUnits="userSpaceOnUse">
				<stop  offset="0" style="stop-color:#FFD800;stop-opacity:0"/>
				<stop  offset="0.5" style="stop-color:#FFD800;stop-opacity:0.3274"/>
				<stop  offset="1" style="stop-color:#FFD800;stop-opacity:0"/>
			</radialGradient>
			<path class="st15" d="M44.1,17.3c0.9,9.1-7.4,17-18.5,17.7C14.4,35.7,4.8,29,3.9,19.9c-0.1-0.9-0.1-1.8,0-2.7
				C3,8.1,11.3,0.2,22.4-0.5c11.2-0.7,20.9,6,21.8,15.1C44.2,15.5,44.2,16.4,44.1,17.3z"/>
		</g>
		<g id="light">

				<radialGradient id="SVGID_20_" cx="2345.5127" cy="-59.8219" r="33.9341" gradientTransform="matrix(0.5262 0 0 -0.7583 -1207.8203 -16.9005)" gradientUnits="userSpaceOnUse">
				<stop  offset="0" style="stop-color:#FFFFFF;stop-opacity:0.1753"/>
				<stop  offset="0.882" style="stop-color:#FFE300"/>
				<stop  offset="1" style="stop-color:#FFB900"/>
			</radialGradient>
			<path class="st16" d="M24,3.3c-7.5,0-13.5,5.9-13.5,13.2c0,7.5,5.5,8.3,5.5,11c0,3.3,3.2,6.9,8.4,6.8c5.7-0.1,8-3.3,8-6.8
				c0-2.9,5.1-3,5.1-11C37.5,9.2,31.5,3.3,24,3.3z"/>
		</g>
		<g id="stroke">

				<linearGradient id="SVGID_21_" gradientUnits="userSpaceOnUse" x1="24.05" y1="55.2186" x2="24.05" y2="23.2291" gradientTransform="matrix(1 0 0 -1 0 58)">
				<stop  offset="0" style="stop-color:#AB8104"/>
				<stop  offset="0.736" style="stop-color:#AB8104"/>
				<stop  offset="1" style="stop-color:#616471"/>
			</linearGradient>
			<path class="st17" d="M24,3.3c-7.5,0-13.5,5.9-13.5,13.2c0,7.5,5.5,8.3,5.5,11c0,3.3,3.2,6.9,8.4,6.8c5.7-0.1,8-3.3,8-6.8
				c0-2.9,5.1-3,5.1-11C37.5,9.2,31.5,3.3,24,3.3z"/>
		</g>
	</g>
	<g>
		<g id="base_1_">
			<path class="st0" d="M24,3.3c-7.5,0-13.5,5.9-13.5,13.2c0,7.5,5.5,8.3,5.5,11c0,3.3,3.2,6.9,8.4,6.8c5.7-0.1,8-3.3,8-6.8
				c0-2.9,5.1-3,5.1-11C37.5,9.2,31.5,3.3,24,3.3z"/>

				<radialGradient id="SVGID_22_" cx="-1316.8484" cy="-182.7607" r="7.8274" gradientTransform="matrix(2.1122 0 0 -0.6227 2806.532 -70.1046)" gradientUnits="userSpaceOnUse">
				<stop  offset="0" style="stop-color:#000000;stop-opacity:0.5155"/>
				<stop  offset="0.5517" style="stop-color:#000000;stop-opacity:0.1443"/>
				<stop  offset="1" style="stop-color:#000000;stop-opacity:0"/>
			</radialGradient>
			<path class="st18" d="M41.6,43.8c0,2.7-7.4,4.8-16.5,4.8S8.6,46.4,8.6,43.8S16,39,25.1,39C34.1,39,41.6,41.2,41.6,43.8L41.6,43.8z
				"/>

				<linearGradient id="SVGID_23_" gradientUnits="userSpaceOnUse" x1="-1071.6581" y1="109.6311" x2="-1068.3036" y2="109.6311" gradientTransform="matrix(1.7634 0 0 -1.5367 1910.9119 211.7453)">
				<stop  offset="5.618000e-03" style="stop-color:#686868"/>
				<stop  offset="3.012137e-02" style="stop-color:#777777"/>
				<stop  offset="8.366583e-02" style="stop-color:#929292"/>
				<stop  offset="0.1422" style="stop-color:#A7A7A7"/>
				<stop  offset="0.2074" style="stop-color:#B6B6B6"/>
				<stop  offset="0.2846" style="stop-color:#BEBEBE"/>
				<stop  offset="0.4045" style="stop-color:#C1C1C1"/>
				<stop  offset="0.4962" style="stop-color:#BCBCBC"/>
				<stop  offset="0.6057" style="stop-color:#ADADAD"/>
				<stop  offset="0.7245" style="stop-color:#959595"/>
				<stop  offset="0.8497" style="stop-color:#747474"/>
				<stop  offset="0.9789" style="stop-color:#494949"/>
				<stop  offset="1" style="stop-color:#414141"/>
			</linearGradient>
			<path class="st19" d="M21,41.3v1.4c0,1.4,1.4,2.6,3,2.6s3-1.2,3-2.6v-1.4H21z"/>

				<linearGradient id="SVGID_24_" gradientUnits="userSpaceOnUse" x1="45.7871" y1="23.647" x2="45.7871" y2="28.0536" gradientTransform="matrix(0.9917 0 0 -0.9909 -21.3994 56.0112)">
				<stop  offset="0" style="stop-color:#4C4428"/>
				<stop  offset="1" style="stop-color:#E7B600;stop-opacity:0"/>
			</linearGradient>
			<path class="st20" d="M23.8,29.3c-3.2,0-6.9,1-4.9,2.8c-0.5,0.2-1.2,0.6-1.2,1.7c0.1,0.5,0.7,0.9,1.5,1.1
				c-0.9,0.7-1.5,1.3-1.5,1.9c0.1,0.6,0.7,1,1.4,1.2c-0.8,0.6-1.4,1.3-1.4,1.9c0.1,1,2.1,2,6.5,1.9c3.1-0.1,5.8-0.7,6-1.9
				c0.1-0.4-0.3-0.9-0.9-1.3c0.5-0.4,0.8-0.9,0.8-1.3c-0.1-0.6-0.6-0.9-1.4-1.2c0.9-0.6,1.4-1.3,1.4-1.9c-0.1-0.6-0.6-0.9-1.4-1.1
				c0.9-0.7,1.4-1.4,1.4-2C30,30.5,26.9,29.3,23.8,29.3z"/>

				<linearGradient id="SVGID_25_" gradientUnits="userSpaceOnUse" x1="2005.4901" y1="90.9497" x2="2023.9734" y2="90.9497" gradientTransform="matrix(0.5604 2.969716e-02 0.1173 -0.6523 -1115.1532 38.9833)">
				<stop  offset="5.618000e-03" style="stop-color:#A3A349"/>
				<stop  offset="2.078677e-02" style="stop-color:#ACAC54"/>
				<stop  offset="6.600000e-02" style="stop-color:#C1C172"/>
				<stop  offset="0.1148" style="stop-color:#D4D68E"/>
				<stop  offset="0.1677" style="stop-color:#E2E4A6"/>
				<stop  offset="0.2265" style="stop-color:#EDF0B8"/>
				<stop  offset="0.2963" style="stop-color:#F3F6C3"/>
				<stop  offset="0.4045" style="stop-color:#F5F8C7"/>
				<stop  offset="0.5239" style="stop-color:#EEF0BE"/>
				<stop  offset="0.6666" style="stop-color:#DBDDA9"/>
				<stop  offset="0.8211" style="stop-color:#BEBD88"/>
				<stop  offset="0.9832" style="stop-color:#989564"/>
				<stop  offset="1" style="stop-color:#949160"/>
			</linearGradient>

				<linearGradient id="SVGID_26_" gradientUnits="userSpaceOnUse" x1="2017.7926" y1="90.9914" x2="2004.4221" y2="90.8825" gradientTransform="matrix(0.5604 2.969716e-02 0.1173 -0.6523 -1115.1532 38.9833)">
				<stop  offset="0" style="stop-color:#929470"/>
				<stop  offset="0.2647" style="stop-color:#FCFFC1"/>
				<stop  offset="0.6324" style="stop-color:#F3F5BA"/>
				<stop  offset="1" style="stop-color:#929470"/>
			</linearGradient>
			<path class="st21" d="M30.1,39.9c-0.2,1.2-3.3,1.9-8.2,1.6c-3.2-0.1-3.3-1-3.1-2.2c0.2-1.2,2.9-2.1,6-1.9
				C28,37.6,30.4,38.7,30.1,39.9z"/>

				<linearGradient id="SVGID_27_" gradientUnits="userSpaceOnUse" x1="1471.1226" y1="-785.3453" x2="1489.6057" y2="-785.3453" gradientTransform="matrix(0.6119 -0.1312 -6.194293e-02 -0.7364 -930.618 -345.6323)">
				<stop  offset="5.618000e-03" style="stop-color:#A3A349"/>
				<stop  offset="2.078677e-02" style="stop-color:#ACAC54"/>
				<stop  offset="6.600000e-02" style="stop-color:#C1C172"/>
				<stop  offset="0.1148" style="stop-color:#D4D68E"/>
				<stop  offset="0.1677" style="stop-color:#E2E4A6"/>
				<stop  offset="0.2265" style="stop-color:#EDF0B8"/>
				<stop  offset="0.2963" style="stop-color:#F3F6C3"/>
				<stop  offset="0.4045" style="stop-color:#F5F8C7"/>
				<stop  offset="0.5239" style="stop-color:#EEF0BE"/>
				<stop  offset="0.6666" style="stop-color:#DBDDA9"/>
				<stop  offset="0.8211" style="stop-color:#BEBD88"/>
				<stop  offset="0.9832" style="stop-color:#989564"/>
				<stop  offset="1" style="stop-color:#949160"/>
			</linearGradient>

				<linearGradient id="SVGID_28_" gradientUnits="userSpaceOnUse" x1="1483.4253" y1="-785.3203" x2="1470.0547" y2="-785.4291" gradientTransform="matrix(0.6119 -0.1312 -6.194293e-02 -0.7364 -930.618 -345.6323)">
				<stop  offset="0" style="stop-color:#929470"/>
				<stop  offset="0.2647" style="stop-color:#FCFFC1"/>
				<stop  offset="0.6324" style="stop-color:#F3F5BA"/>
				<stop  offset="1" style="stop-color:#929470"/>
			</linearGradient>
			<path class="st22" d="M30,37.2c0.1,1.4-2.6,3.1-6,3.8c-3.4,0.7-6.3,0.2-6.4-1.2l0,0c-0.1-1.4,2.6-3.1,6-3.8S29.9,35.8,30,37.2z"/>

				<linearGradient id="SVGID_29_" gradientUnits="userSpaceOnUse" x1="1471.1226" y1="-785.3128" x2="1489.6057" y2="-785.3128" gradientTransform="matrix(0.6119 -0.1312 -6.194293e-02 -0.7364 -930.618 -348.7079)">
				<stop  offset="5.618000e-03" style="stop-color:#A3A349"/>
				<stop  offset="2.078677e-02" style="stop-color:#ACAC54"/>
				<stop  offset="6.600000e-02" style="stop-color:#C1C172"/>
				<stop  offset="0.1148" style="stop-color:#D4D68E"/>
				<stop  offset="0.1677" style="stop-color:#E2E4A6"/>
				<stop  offset="0.2265" style="stop-color:#EDF0B8"/>
				<stop  offset="0.2963" style="stop-color:#F3F6C3"/>
				<stop  offset="0.4045" style="stop-color:#F5F8C7"/>
				<stop  offset="0.5239" style="stop-color:#EEF0BE"/>
				<stop  offset="0.6666" style="stop-color:#DBDDA9"/>
				<stop  offset="0.8211" style="stop-color:#BEBD88"/>
				<stop  offset="0.9832" style="stop-color:#989564"/>
				<stop  offset="1" style="stop-color:#949160"/>
			</linearGradient>

				<linearGradient id="SVGID_30_" gradientUnits="userSpaceOnUse" x1="1483.425" y1="-785.2878" x2="1470.0543" y2="-785.3966" gradientTransform="matrix(0.6119 -0.1312 -6.194293e-02 -0.7364 -930.618 -348.7079)">
				<stop  offset="0" style="stop-color:#929470"/>
				<stop  offset="0.2647" style="stop-color:#FCFFC1"/>
				<stop  offset="0.6324" style="stop-color:#F3F5BA"/>
				<stop  offset="1" style="stop-color:#929470"/>
			</linearGradient>
			<path class="st23" d="M30,34.1c0.1,1.4-2.6,3.1-6,3.8c-3.4,0.7-6.3,0.2-6.4-1.2l0,0c-0.1-1.4,2.6-3.1,6-3.8S29.9,32.8,30,34.1z"/>

				<linearGradient id="SVGID_31_" gradientUnits="userSpaceOnUse" x1="1471.1228" y1="-785.7468" x2="1489.6062" y2="-785.7468" gradientTransform="matrix(0.6119 -0.1312 -6.194293e-02 -0.7364 -930.6182 -351.7834)">
				<stop  offset="5.618000e-03" style="stop-color:#A3A349"/>
				<stop  offset="2.078677e-02" style="stop-color:#ACAC54"/>
				<stop  offset="6.600000e-02" style="stop-color:#C1C172"/>
				<stop  offset="0.1148" style="stop-color:#D4D68E"/>
				<stop  offset="0.1677" style="stop-color:#E2E4A6"/>
				<stop  offset="0.2265" style="stop-color:#EDF0B8"/>
				<stop  offset="0.2963" style="stop-color:#F3F6C3"/>
				<stop  offset="0.4045" style="stop-color:#F5F8C7"/>
				<stop  offset="0.5239" style="stop-color:#EEF0BE"/>
				<stop  offset="0.6666" style="stop-color:#DBDDA9"/>
				<stop  offset="0.8211" style="stop-color:#BEBD88"/>
				<stop  offset="0.9832" style="stop-color:#989564"/>
				<stop  offset="1" style="stop-color:#949160"/>
			</linearGradient>

				<linearGradient id="SVGID_32_" gradientUnits="userSpaceOnUse" x1="1483.4288" y1="-785.7091" x2="1470.0582" y2="-785.818" gradientTransform="matrix(0.6119 -0.1312 -6.194293e-02 -0.7364 -930.6182 -351.7834)">
				<stop  offset="0" style="stop-color:#929470"/>
				<stop  offset="0.2647" style="stop-color:#FCFFC1"/>
				<stop  offset="0.6324" style="stop-color:#F3F5BA"/>
				<stop  offset="1" style="stop-color:#929470"/>
			</linearGradient>
			<path class="st24" d="M30,31.3c0,1.3-2.6,2.9-6,3.6s-6.2,0.2-6.3-1.2c-0.2-1.3,2.2-2.9,5.6-3.1C26.6,30.4,30,30.5,30,31.3z"/>
			<path class="st0" d="M21.5,36.3c0.1,0.6-0.3,1.2-0.9,1.3s-1.2-0.3-1.3-0.9c0-0.1,0-0.3,0-0.4c-0.1-0.6,0.3-1.2,0.9-1.3
				s1.2,0.3,1.3,0.9C21.5,36.1,21.5,36.2,21.5,36.3z"/>
			<path class="st8" d="M18.8,35c3.4,0.5,6.9-0.1,9.8-1.9c0.8-0.5,0.9-1.1,1.3-1.6C28.4,32.6,24.8,35.6,18.8,35z"/>
			<path class="st0" d="M21.5,39.3c0.1,0.6-0.3,1.2-0.9,1.3s-1.2-0.3-1.3-0.9c0-0.1,0-0.3,0-0.4c-0.1-0.6,0.3-1.2,0.9-1.3
				s1.2,0.3,1.3,0.9C21.5,39.1,21.5,39.2,21.5,39.3z"/>
			<path class="st8" d="M18.8,41.1c3.4,0.5,6.9-0.1,9.8-1.9c0.8-0.5,0.9-1.1,1.3-1.6C28.5,38.7,24.9,41.7,18.8,41.1z"/>
			<path class="st8" d="M18.9,38c3.3,0.5,6.9-0.1,9.7-1.9c0.8-0.5,1-1.1,1.3-1.6C28.5,35.6,25,38.6,18.9,38z"/>

				<linearGradient id="SVGID_33_" gradientUnits="userSpaceOnUse" x1="-858.5052" y1="-227.1843" x2="-864.4792" y2="-226.6846" gradientTransform="matrix(1.5304 0 0 -0.5438 1342.4042 -91.3196)">
				<stop  offset="0" style="stop-color:#D6D87B"/>
				<stop  offset="1" style="stop-color:#FBE843"/>
			</linearGradient>

				<linearGradient id="SVGID_34_" gradientUnits="userSpaceOnUse" x1="-5515.4028" y1="513.1028" x2="-5524.0366" y2="512.9017" gradientTransform="matrix(-0.8645 -4.341720e-02 -0.1809 0.9537 -4654.4053 -696.798)">
				<stop  offset="0" style="stop-color:#DCD763"/>
				<stop  offset="0.2647" style="stop-color:#D9BB05"/>
				<stop  offset="0.6324" style="stop-color:#DCD763"/>
				<stop  offset="1" style="stop-color:#C7A107"/>
			</linearGradient>
			<path class="st25" d="M18.5,31.8c0-0.8,1.5-1.8,5.3-1.7c3.5,0,5.8,0.9,5.8,2.1c0,1.3-3.1,2.1-6.4,1.9C20,34,18.5,33,18.5,31.8z"/>

				<linearGradient id="SVGID_35_" gradientUnits="userSpaceOnUse" x1="471.524" y1="30.4031" x2="428.3319" y2="43.1992" gradientTransform="matrix(0.8534 0 0 -0.9752 -368.8648 51.4851)">
				<stop  offset="0" style="stop-color:#FFFFF1"/>
				<stop  offset="1" style="stop-color:#F1F3FF;stop-opacity:0"/>
			</linearGradient>
			<path class="st26" d="M24,4.3c-7,0-12.6,5.6-12.6,12.3c0,7,5.1,7.8,5.1,10.3c0,3.1,3,6.5,7.9,6.3c5.3-0.1,7.4-3.1,7.4-6.3
				c0-2.7,4.8-2.8,4.8-10.3C36.6,9.9,31,4.3,24,4.3z"/>

				<linearGradient id="SVGID_36_" gradientUnits="userSpaceOnUse" x1="-6783.1133" y1="135.245" x2="-6781.5674" y2="127.396" gradientTransform="matrix(-0.59 0 0 -1.473 -3973.9919 219.3211)">
				<stop  offset="0" style="stop-color:#FFE708"/>
				<stop  offset="0.4118" style="stop-color:#FFD604;stop-opacity:0.4392"/>
				<stop  offset="1" style="stop-color:#4C3E1C;stop-opacity:0.4784"/>
			</linearGradient>
			<path class="st27" d="M29.5,19.9c0.3,0.1,0.5,0.4,0.4,0.6l-3.6,10.8c-0.1,0.3-0.4,0.5-0.7,0.4s-0.5-0.4-0.4-0.7l3.6-10.7
				C28.9,20,29.1,19.8,29.5,19.9z"/>

				<linearGradient id="SVGID_37_" gradientUnits="userSpaceOnUse" x1="1789.9371" y1="135.2016" x2="1791.4829" y2="127.3524" gradientTransform="matrix(0.59 0 0 -1.473 -1036.0038 219.4371)">
				<stop  offset="0" style="stop-color:#FFE708"/>
				<stop  offset="0.4118" style="stop-color:#FFD604;stop-opacity:0.4392"/>
				<stop  offset="1" style="stop-color:#4C3E1C;stop-opacity:0.4784"/>
			</linearGradient>
			<path class="st28" d="M18.5,20c-0.3,0.1-0.5,0.4-0.4,0.7l3.6,10.7c0.1,0.3,0.4,0.5,0.7,0.4c0.3-0.1,0.5-0.4,0.4-0.7l-3.6-10.7
				C19.1,20.1,18.8,19.9,18.5,20z"/>

				<linearGradient id="SVGID_38_" gradientUnits="userSpaceOnUse" x1="-1155.3187" y1="-286.963" x2="-1160.5914" y2="-287.71" gradientTransform="matrix(1.861 0 0 -0.467 2178.7329 -112.9794)">
				<stop  offset="0" style="stop-color:#FFB812"/>
				<stop  offset="1" style="stop-color:#FFB812;stop-opacity:0"/>
			</linearGradient>
			<path class="st29" d="M18.6,19.9c-0.3,0.1-0.4,0.2-0.5,0.5c0,0.2,0.1,0.4,0.3,0.5c0,0,1.7,1,4,1.5c2.2,0.5,5.1,0.6,7.3-1.5
				c0.2-0.2,0.2-0.4,0.2-0.6s-0.2-0.3-0.4-0.4c-0.2,0-0.4,0-0.6,0.2c-1.8,1.8-4.2,1.8-6.3,1.3S19,20,19,20
				C18.8,19.9,18.8,19.9,18.6,19.9z"/>

				<linearGradient id="SVGID_39_" gradientUnits="userSpaceOnUse" x1="-188.7871" y1="22.1996" x2="-173.6891" y2="-4.4655" gradientTransform="matrix(1.0885 0 0 -0.9166 224.5388 28.8329)">
				<stop  offset="0" style="stop-color:#FFFFFF"/>
				<stop  offset="1" style="stop-color:#FFFFFF;stop-opacity:0"/>
			</linearGradient>
			<path class="st30" d="M24.3,6c-6,0-10.8,4-10.8,8.9c0,1.9,0.9,3.6,2.2,5.1c1.5,0.6,3.1,1.1,4.9,1.1c6,0,10.8-4,10.8-8.9
				c0-2-0.9-3.7-2.2-5.2C27.6,6.4,26.1,6,24.3,6z"/>
		</g>
		<g id="glow_1_">

				<radialGradient id="SVGID_40_" cx="-616.3834" cy="61.1793" r="15.0742" gradientTransform="matrix(1.3418 0 0 -1.0894 851.1634 83.8738)" gradientUnits="userSpaceOnUse">
				<stop  offset="0" style="stop-color:#FFD800;stop-opacity:0"/>
				<stop  offset="0.5" style="stop-color:#FFD800;stop-opacity:0.3274"/>
				<stop  offset="1" style="stop-color:#FFD800;stop-opacity:0"/>
			</radialGradient>
			<path class="st31" d="M44.1,17.3c0.9,9.1-7.4,17-18.5,17.7C14.4,35.7,4.8,29,3.9,19.9c-0.1-0.9-0.1-1.8,0-2.7
				C3,8.1,11.3,0.2,22.4-0.5c11.2-0.7,20.9,6,21.8,15.1C44.2,15.5,44.2,16.4,44.1,17.3z"/>
		</g>
		<g id="light_1_">

				<radialGradient id="SVGID_41_" cx="2345.5127" cy="-59.8219" r="33.9341" gradientTransform="matrix(0.5262 0 0 -0.7583 -1207.8203 -16.9005)" gradientUnits="userSpaceOnUse">
				<stop  offset="0" style="stop-color:#FFFFFF;stop-opacity:0.1753"/>
				<stop  offset="0.882" style="stop-color:#FFE300"/>
				<stop  offset="1" style="stop-color:#FFB900"/>
			</radialGradient>
			<path class="st32" d="M24,3.3c-7.5,0-13.5,5.9-13.5,13.2c0,7.5,5.5,8.3,5.5,11c0,3.3,3.2,6.9,8.4,6.8c5.7-0.1,8-3.3,8-6.8
				c0-2.9,5.1-3,5.1-11C37.5,9.2,31.5,3.3,24,3.3z"/>
		</g>
		<g id="stroke_1_">

				<linearGradient id="SVGID_42_" gradientUnits="userSpaceOnUse" x1="24.05" y1="55.2186" x2="24.05" y2="23.2291" gradientTransform="matrix(1 0 0 -1 0 58)">
				<stop  offset="0" style="stop-color:#AB8104"/>
				<stop  offset="0.736" style="stop-color:#AB8104"/>
				<stop  offset="1" style="stop-color:#616471"/>
			</linearGradient>
			<path class="st33" d="M24,3.3c-7.5,0-13.5,5.9-13.5,13.2c0,7.5,5.5,8.3,5.5,11c0,3.3,3.2,6.9,8.4,6.8c5.7-0.1,8-3.3,8-6.8
				c0-2.9,5.1-3,5.1-11C37.5,9.2,31.5,3.3,24,3.3z"/>
		</g>
	</g>
</symbol>
</svg>
